PathFileType	4	(X/Y/Z)	C:/Users/beibeiliu/ov580/test_trc/User1\sequence.34_training_dense_right.trc
DataRate	CameraRate	NumFrames	NumMarkers	Units	OrigDataRate	OrigDataStartFrame	OrigNumFrames
120	120	8	19	mm	120	88	234
Frame#	Time	ThumbCMC			ThumbMCP			ThumbIP			ThumbTip			IndexMCP			IndexPIP			IndexTip			MiddleMCP			MiddlePIP			MiddleTip			RingMCP			RingPIP			RingTip			PinkyMCP			PinkyPIP			PinkyTip			BackHand1			BackHand2			BackHand3	
		X0	Y0	Z0	X1	Y1	Z1	X2	Y2	Z2	X3	Y3	Z3	X4	Y4	Z4	X5	Y5	Z5	X6	Y6	Z6	X7	Y7	Z7	X8	Y8	Z8	X9	Y9	Z9	X10	Y10	Z10	X11	Y11	Z11	X12	Y12	Z12	X13	Y13	Z13	X14	Y14	Z14	X15	Y15	Z15	X16	Y16	Z16	X17	Y17	Z17	X18	Y18	Z18	
87	0.725	159.713	-18.2474	88.6295	129.16	-34.875	73.3402	106.202	-41.5514	58.6964	88.9392	-55.018	44.4472	166.748	-16.9799	3.19713	154.621	-23.5269	-22.7207	130.76	-41.046	-35.7801	186.318	-40.2829	-8.78939	172.083	-53.6258	-33.5599	150.126	-79.7668	-42.7802	181.559	-73.0658	2.55264	155.658	-93.4361	9.56828	147.724	-89.0491	40.6187	190.45	-93.3624	27.9631	164.769	-96.1693	40.5651	163.374	-75.8018	66.9617	218.062	-45.0939	51.5333	226.335	-40.3363	82.734	199.874	-17.1857	70.2839	
88	0.733333	155.674	-21.5593	90.2063	125.257	-40.0163	76.535	108.699	-50.1265	59.136	93.7298	-65.4095	43.2723	163.401	-17.1633	5.3224	151.529	-24.2119	-25.9604	128.869	-43.8646	-37.9866	188.384	-39.3426	-8.20432	176.967	-52.2256	-34.0521	153.269	-78.1098	-47.1011	181.651	-69.5703	0.931208	158.668	-92.9167	7.28946	154.868	-93.0189	41.9297	194.753	-87.9707	24.7229	169.179	-98.5168	39.8885	165.908	-75.5775	65.4899	212.104	-40.3391	48.5264	222.788	-33.8447	81.3336	194.072	-13.8767	68.9156	
89	0.741667	151.401	-25.7275	84.0989	126.114	-47.0948	74.5655	105.95	-57.4539	56.5096	95.4433	-73.5658	43.9394	158.967	-17.3683	5.36501	148.54	-20.3925	-22.7553	133.811	-47.021	-42.541	187.057	-36.6913	-6.55487	176.02	-49.9717	-37.439	156.514	-78.2469	-49.608	186.103	-68.528	-1.04329	168.485	-94.3785	2.61149	157.37	-94.2838	34.6124	200.5	-89.2362	23.8936	175.607	-98.7725	33.8412	166.467	-81.7228	60.4597	214.891	-38.4059	51.2207	223.317	-33.0889	81.6352	188.691	-12.1323	66.4615	
90	0.75	147.737	-29.3511	85.3721	123.221	-52.5699	70.2965	105.872	-65.0872	51.4314	93.9128	-83.2508	38.9442	154.474	-16.7646	3.40852	150.031	-24.1336	-25.2119	135.21	-44.6502	-43.9089	187.372	-33.9952	-6.24243	178.337	-46.8059	-38.2501	165.984	-74.6145	-53.2787	194.103	-66.7344	-1.27973	172.371	-95.5082	0.937049	165.746	-96.8193	33.4862	205.586	-84.7678	22.2129	182.902	-101.822	33.8574	171.6	-83.6177	55.8305	210.842	-34.3538	47.5388	217.999	-27.3302	86.0157	184.236	-11.6636	66.3808	
91	0.758333	149.212	-33.0084	81.9576	123.421	-57.061	67.1078	111.872	-71.6861	53.3337	97.7487	-89.6314	37.6165	157.202	-20.9009	1.90635	146.841	-25.3031	-29.2696	137.268	-47.2119	-47.611	187.445	-33.2746	-8.81116	181.615	-47.3501	-42.3755	171.467	-75.0762	-57.4722	195.614	-65.7518	-4.00448	180.4	-98.2186	-1.65181	170.014	-99.1849	27.489	212.522	-85.1124	21.9578	187.051	-100.937	32.3854	175.044	-85.4308	54.3595	212.073	-32.6619	46.6691	218.801	-26.0038	83.7156	182.504	-13.9471	68.2657	
92	0.766667	146.371	-35.2569	79.0467	129.376	-61.3664	65.4043	112.368	-76.1268	49.9958	107.616	-94.7941	32.8558	155.509	-22.4655	1.59913	148.911	-26.1414	-30.7617	142.818	-48.855	-50.5038	189.541	-32.2435	-8.55255	184.951	-44.567	-41.2856	182.978	-72.4558	-58.2265	198.603	-64.7679	-3.23988	187.985	-95.1991	-6.61297	176.839	-101.547	29.8187	214.223	-86.1527	20.3225	193.23	-101.151	27.6411	177.204	-85.3767	54.3422	213.212	-31.7948	48.9195	219.086	-24.7416	85.5169	181.6	-16.2882	67.3761	
93	0.775	147.178	-36.0851	78.4974	127.253	-63.5896	65.4147	115.792	-79.7788	42.4242	108.387	-100.426	29.2143	159.429	-24.283	1.31622	153.061	-26.3733	-29.1252	149.588	-51.5514	-52.4639	190.768	-31.6078	-6.0697	194.303	-45.7354	-41.6769	186.827	-72.2458	-60.8864	203.712	-65.4914	-2.92249	192.748	-94.3824	-6.79299	178.436	-103.226	21.1053	217.567	-83.597	22.3348	197.536	-103.713	29.0616	180.472	-88.1744	53.9782	215.922	-32.6978	48.7248	214.029	-23.9546	88.0467	181.882	-14.4513	63.6211	
94	0.783333	148.544	-37.8008	80.817	129.148	-64.7202	65.2853	117.691	-82.3883	41.0189	118.07	-103.753	23.5308	165.298	-25.9013	-0.9794	160.534	-29.1761	-32.8896	152.463	-48.1963	-53.1603	196.338	-31.8491	-6.93373	198.806	-44.1918	-40.5111	194.962	-71.1601	-61.8735	209.958	-64.5852	-2.62782	199.498	-94.8698	-6.55878	185.856	-105.838	21.74	220.138	-79.2262	23.9234	200.328	-101.438	26.9253	181.03	-88.8142	53.4982	216.225	-33.6156	51.4283	216.513	-25.3902	83.8848	180.959	-13.7803	67.9633	
